<?xml version="1.0" encoding="utf-8"?>
<!-- Generator: Adobe Illustrator 24.1.2, SVG Export Plug-In . SVG Version: 6.00 Build 0)  -->
<svg preserveAspectRatio="none" version="1.1" id="Слой_1" xmlns="http://www.w3.org/2000/svg" xmlns:xlink="http://www.w3.org/1999/xlink" x="0px" y="0px"
	 viewBox="0 0 1920 1080" style="enable-background:new 0 0 1920 1080;" xml:space="preserve">
<style type="text/css">
	.st0{fill:#F7F7F7;;}
</style>
<path class="st0" d="M277,403"/>
<path class="st0" d="M1919,732.4c0.1-1.2,0.4-2.1,0.7-2.9c-1.4-1.8-1.9-4.7-1.7-7.4c-0.1-0.7-0.2-1.5-0.2-2.3v-6.6
	c0-1.8,0.4-3.4,1-4.7c-1.3-10.2-1.2-20.3-0.1-30.4c-0.6-1.2-0.9-2.7-0.9-4.5c0.1-16.6,1.9-33,2.3-49.5c-0.7-6.8-0.9-13.5-0.8-20.2
	c-0.3-2.6-0.6-5.2-1.1-7.8c-0.7-4.2-0.4-8.8,0.3-13.3H-3.3C2.3,629-6.5,675.9,1,722.1c0.4,2.4-0.8,4.3-2.5,5.4
	c1.1,22.5-0.3,45.2,0.3,67.8c59.4,26.7,133.6,48.6,213.4,44.9c86.8-3,205.4-28.4,296.6-94.9c46.9-34.3,115.5-77.1,176.4-102.5
	c60.2-26.7,87.4-28.4,110.2-32.6c50-10.6,114,1.7,167.1,22.5c52.2,20.8,156.9,99.6,222.5,151.3c167.8,136.4,295.9,188.5,426.3,210.6
	c52.2,8.9,107.8,14.8,228.9-10.6c26.3-5.5,52.3-13.8,76.9-23.3c0-0.2,0-0.3,0-0.5c0-13.4,1.1-26.8,2.2-40.1c0.1-0.8,0.1-1.7,0.2-2.5
	c-2.3-22.1-0.7-45.3-0.7-67.3c0-1.8,0.3-3.3,0.8-4.5c-1.8-11.2-2.3-23-2.8-34.3c-0.7-17.3-0.6-34.7-1.3-52c-0.1-3.2,0.8-5.5,2.1-6.7
	C1917.6,745.9,1918.2,739.2,1919,732.4z"/>
<line class="st0" x1="-121.2" y1="582.6" x2="-138.4" y2="582.6"/>
<path class="st0" d="M1592.8,210.4c-80.9,1.8-191.6,17.6-276.7,58.8c-43.8,21.3-107.8,47.8-164.6,63.5
	c-56.2,16.5-81.6,17.6-102.8,20.2c-46.7,6.6-106.3-1.1-155.9-13.9c-48.7-12.9-146.4-61.7-207.5-93.7
	c-156.5-84.5-276.1-116.8-397.7-130.5c-48.7-5.5-100.6-9.2-213.5,6.6c-15.3,2.1-30.4,4.9-45.5,8.2c-7.3,1.6-14.5,3.3-21.7,5.1
	c-1.8,0.4-3.6,0.6-5,1.6c-1.8,0.6-3.2,2.2-3.1,4.7c0.4,17.2,0.8,34.4,1.2,51.7v24.7c0,0.2,0,0.4,0,0.5v89c-0.1,11.1-0.2,22.2,0,33.3
	c-0.1,1.4-0.2,2.9-0.2,4.3c0,0.3,0.1,0.5,0.1,0.8c-0.4,0.7-0.7,1.7-0.6,2.8c0.4,6-1.7,11.8,0.2,17.7c0.4,1.3,1.2,2.2,2.1,2.8
	c-0.1,0.5-0.2,1-0.3,1.5h1918.7v-79.6C1919.9,290.4,1771.2,204.8,1592.8,210.4z"/>
<rect x="1897.9" y="582.6" class="st0" width="19.4" height="340.8"/>
<rect x="1.3" y="370" class="st0" width="1916.9" height="212.6"/>
</svg>
