<?xml version="1.0" encoding="utf-8"?>
<!-- Generator: Adobe Illustrator 24.1.2, SVG Export Plug-In . SVG Version: 6.00 Build 0)  -->
<svg preserveAspectRatio="none" version="1.1" id="Слой_1" xmlns="http://www.w3.org/2000/svg" xmlns:xlink="http://www.w3.org/1999/xlink" x="0px" y="0px"
	 viewBox="0 0 2679.8 1031.5" style="enable-background:new 0 0 2679.8 1031.5;" xml:space="preserve">
<style type="text/css">
	.st0{fill:#F7F7F7;}
	.st1{opacity:0.33;fill:#F7F7F7;enable-background:new    ;}
	.st2{opacity:0.66;fill:#F7F7F7;enable-background:new    ;}
</style>
<g>
	<path class="st0" d="M2681.8,766.7L2681.8,766.7L2681.8,766.7L2681.8,766.7z"/>
	<path class="st0" d="M-12,157.6c-0.1,8.6-0.3,17.4,0,26.1 M5.6,484c-0.1,0.9-0.3,1.6-0.3,2.4c0,0.1,0.1,0.3,0.1,0.4
		c-0.6,0.4-1,1-0.8,1.6c0.6,3.1-2.4,6.4,0.3,9.4c0.3,0.3,0.6,0.6,1.1,0.9H3.6v285.7h0.1v128.3c0,0,61.5-19.2,158.6-6
		c45.3,7.2,95.3,29.8,149.1,44.1s99.1,17.7,113.3,19c55.8,2.4,103.8-6,134.1-10.7c71.6-10.7,124.6-41.6,160.4-55.9
		c36.8-14.3,85.9-22.5,99.1-23.7c124.6-9.6,422.6,148.3,589.9,151.9c156.7,3.4,288-36.8,350.3-74.7c55.8-33.3,60.5-35.6,169.9-88.1
		c109.6-52.4,315.3,44.1,421.9,67.8c78.3,17.9,133.1,21.6,197.2,17.9c61.7-3.6,128.8-52.4,132-54.6h-0.1V784.4h0.3V500.2v-1.4
		 M282,812.6c-1,4.7-19.7,6.2-50.9-10.8c-31.2-17-33-17-53.8-24.8c-40.6-15.5-115.1-9.2-117.9-10.8c-3.8-1.6,68.9-15.6,106.6-3.2
		c22.7,6.2,49.2,15.6,73.6,31C264,809.3,283,809.3,282,812.6z M343.2,838.9c-11.3-1.6-33-14-31.1-14s19.8,6.2,34.8,4.7
		c14.1-1.6,15.1,1.6,15.1,6.2C362,840.6,354.5,840.6,343.2,838.9z M621.6,801.6c-15.2,11-19,7.8-18,3.2c1-4.8-1-3.2,15.2-9.3
		c15.1-6.2,19.8-10.8,23.6-12.3C646.1,781.3,636.6,790.7,621.6,801.6z M662.1,736.4c-2-1.5,30.1-24.8,46.3-32.7
		c15.2-6.3,25.5-4.8,25.5-3.2s3.8,4.8-18,9.3C694.2,716.2,664.1,738.1,662.1,736.4z M754.4,734.6c-46.1,15.6-75.4,38.8-79.2,40.5
		s55.6-47.9,104.5-57.5c49.1-9.3,58.5,0,58.5,4.7S800.7,717.6,754.4,734.6z M940.3,736.5c-1,1.6,1.8,7.8-18-7.8
		c-19.8-15.6-51.9-24.8-52.8-28s33,6.2,48.2,15.6C932.8,724.2,941.3,735,940.3,736.5z M1344.9,831.5
		c-61.2-3.8-189.6-106.3-155.6-83.8c34,22.6,115.1,71.9,162.2,71.9c40.6,0,62.3,5.9,68.7,6.4
		C1414.1,827.8,1393.4,834.9,1344.9,831.5z M1733.5,764.3c-16,10.8-138.7,96.2-174.5,108.5c-22.6,7.8-20.6,12.3-71.6,24.8
		c-51,12.5-105.7,3.2-105.7,0c-1-1.6,46.1-1.6,82.9-7.8c36-6.2,74.6-21.7,94.4-31C1608,837.1,1749.5,753.4,1733.5,764.3z
		 M1864.5,739.6c-0.8,0-19.8,9.1-48.1,27.7c-27.7,17.6-60.6,45-62.3,46.7c2.1-3,27.3-34,65.1-57.4
		C1857,733.4,1866.4,739.6,1864.5,739.6z M2218.1,758.2c-29.3-7.8-85.9-31.1-116.9-42c-75.4-26.5-158.5-15.5-166-17
		c-6.6-1.6,65.1-18.7,142.5-1.6c45.3,11.1,112.2,42,142.5,54.5c30.2,10.8,52.8,14,52.8,14S2249.3,767.6,2218.1,758.2z M2407.8,813.8
		c-27.3-6-53.8-27.7-56.6-29.4c-2.9-1.6,32.9,17,54.6,17c21.7,0,34-9.3,40.6,6.2C2452.2,823.3,2436.1,821.8,2407.8,813.8z
		 M2617.2,767.6c-36.5,29.4-67.5,38.7-69.8,38.8c2.4-1.1,37.4-21.5,63.1-42c27.3-21.8,44.3-37.2,45.3-38.8
		C2656.8,724.1,2654,738.1,2617.2,767.6z M627.6,168C1162.9,489.7,1339.5-198.4,1685,58.9c345.3,260.7,345.3,240.5,498.3,155.5
		c152.1-85,140.5-135.9,254-178.5C2601.4-26.7,2678,329.6,2678,329.6H1.8c0,0,26.5-228.8,223.7-269S457.7,66.7,627.6,168z"/>
	<path class="st1" d="M1413,115.6c545.8-280.7,704.2,108.1,857.3,0c232.1-164.7,408.7,24.2,408.7,24.2v189.7H2.3V139.9
		c0,0,166.2-82.9,254.1-93.2c87.8-10.4,168.1,39.1,202.9,70.3c62.3,54.9,224.9,185,359.8,197.7C953.9,327.4,1361,142.1,1413,115.6z"
		/>
	<path class="st2" d="M714.3,67c121.7,0,206.3,90.3,345.2,152.2c76.4,33.9,401.8,39.3,679.1-152.2s245.2,133.9,398.9,0
		c229.9-198.5,539.3,107.1,539.3,107.1V329H3.2V186.9c0,0,75.3,72,246.2,72C510.6,258.5,602.9,67,714.3,67z"/>
	<rect x="4.5" y="329.6" class="st0" width="2674.6" height="197.7"/>
</g>
</svg>
